<svg xmlns="http://www.w3.org/2000/svg" viewBox="0 0 512 512" width="512" height="512"><path d="M509.654 261.113l-.069-.327c-.69-3.103-17.149-73.505-90.494-102.031V46.752h-31.347v114.293c-10.52 5.281-27.192 14.669-45.26 28.801-36.049 28.196-62.215 63.35-76.245 102.232H245.76c-14.03-38.881-40.197-74.036-76.245-102.232-18.953-14.825-36.373-24.431-46.763-29.549V46.752H91.405v112.586c-72.074 28.895-88.306 98.367-88.99 101.449l-.069.327c-3.877 19.385-2.945 38.707 2.769 57.428 3.548 11.626 8.85 22.439 15.56 32.231v97.37l10.52 3.662c1.543.537 38.321 13.155 85.497 13.437.535.004 1.067.005 1.6.005 56.254 0 103.463-17.88 137.736-51.967 34.277 34.089 81.478 51.969 137.737 51.967.53 0 1.069-.002 1.6-.005 47.176-.283 83.955-12.901 85.497-13.437l10.52-3.662v-97.452c6.682-9.771 11.965-20.555 15.503-32.149 5.714-18.724 6.646-38.045 2.769-57.429zm-148.619-45.976c18.942-14.94 36.359-24.033 44.64-27.955 24.055 8.885 43.464 24.461 57.75 46.37 10.75 16.484 14.813 31.121 15.462 33.644-9.634 2.136-27.475 5.037-47.817 3.222-34.759-3.099-62.308-18.276-82.073-45.143 3.845-3.46 7.856-6.84 12.038-10.138zm-312.46 18.414c14.288-21.911 33.698-37.489 57.757-46.373 9.988 4.728 33.328 17.025 56.819 38.282-19.755 26.75-47.259 41.865-81.937 44.957-20.529 1.831-38.514-1.143-48.083-3.283.741-2.852 4.838-17.32 15.444-33.583zm-15.958 65.482c9.112 1.701 21.426 3.305 35.513 3.305 4.699 0 9.596-.179 14.634-.591 42.215-3.459 77.201-21.811 102.305-53.381 13.268 16.132 25.107 35.605 32.724 58.718-3.009 6.877-9.838 20.613-21.246 33.83-20.289 23.51-45.351 34.713-74.542 33.275-40.765-2-75.692-28.04-86.909-64.797a86.84 86.84 0 0 1-2.479-10.359zm427.417 126.22c-13.229 3.448-37.625 8.583-65.739 8.647l-.555.001c-54.207 0-96.442-18.105-125.532-53.815l-4.761-5.774h-14.896l-4.704 5.774c-29.092 35.713-71.32 53.815-125.532 53.815l-.555-.001c-28.116-.064-52.517-5.201-65.74-8.644v-42.958c19.518 13.611 43.15 21.96 68.45 23.201 2.158.106 4.296.158 6.427.158 36.537 0 68.988-15.535 94.165-45.178 11.732-13.814 19.402-27.831 23.737-37.053h22.397c4.335 9.222 12.004 23.24 23.737 37.053 25.18 29.646 57.625 45.178 94.165 45.178 2.128 0 4.272-.053 6.427-.158 25.325-1.242 48.978-9.607 68.507-23.242v42.996zm16.871-115.861c-11.217 36.758-46.144 62.797-86.911 64.796-29.17 1.441-54.252-9.763-74.542-33.275-11.418-13.227-18.248-26.974-21.247-33.831 6.99-21.265 17.978-40.973 32.821-58.955 25.116 31.716 60.173 50.152 102.494 53.619 5.039.414 9.933.591 14.634.591 13.935 0 26.137-1.569 35.219-3.251a86.347 86.347 0 0 1-2.468 10.306z" fill="#FFF"/></svg>