<svg xmlns="http://www.w3.org/2000/svg" viewBox="0 0 512 512" width="512" height="512"><path d="M346.997 269.992c-24.812 0-44.999 20.186-44.999 44.999s20.186 44.999 44.999 44.999c24.812 0 44.999-20.186 44.999-44.999s-20.187-44.999-44.999-44.999zm0 59.998c-8.271 0-15-6.729-15-15s6.729-15 15-15 15 6.729 15 15-6.729 15-15 15zm89.997-179.995H75.006c-8.284 0-15 6.716-15 15 0 8.284 6.716 15 15 15h361.989c8.284 0 15-6.716 15-15-.001-8.284-6.717-15-15.001-15zm-239.992 59.998H75.006c-8.284 0-15 6.716-15 15s6.716 15 15 15h121.996c8.284 0 15-6.716 15-15s-6.716-15-15-15zm0 59.999H75.006c-8.284 0-15 6.716-15 15s6.716 15 15 15h121.996c8.284 0 15-6.716 15-15s-6.716-15-15-15zm0 59.998H75.006c-8.284 0-15 6.716-15 15 0 8.284 6.716 15 15 15h121.996c8.284 0 15-6.716 15-15-.001-8.284-6.716-15-15-15z" fill="#FFF"/><path d="M466.993 0H45.007C20.194 0 .008 20.186.008 44.999v329.99c0 24.812 20.186 44.999 44.999 44.999H272v76.998c0 11.125 11.735 18.4 21.707 13.417l53.29-26.645 53.29 26.645c9.904 4.952 21.707-2.206 21.707-13.417v-76.998h44.999c24.812 0 44.999-20.186 44.999-44.999V44.999C511.992 20.186 491.806 0 466.993 0zm-74.997 472.715l-38.291-19.146a15.002 15.002 0 0 0-13.416 0l-38.291 19.145v-70.347c2.978.169 5.979.059 8.961-.374 17.907 23.988 54.171 23.985 72.076 0 2.982.433 5.983.542 8.961.374v70.348zm19.533-143.42c-8.879 2.811-13.071 12.958-8.786 21.211 3.025 5.826 1.933 12.865-2.717 17.513-4.649 4.651-11.689 5.742-17.514 2.717-8.266-4.29-18.404-.082-21.211 8.786-4.405 13.917-24.205 13.921-28.611 0-2.822-8.914-12.993-13.053-21.211-8.786-12.955 6.726-26.959-7.273-20.23-20.23 4.291-8.266.08-18.404-8.786-21.211-13.917-4.405-13.921-24.205 0-28.611 8.879-2.81 13.071-12.958 8.787-21.211-6.725-12.952 7.274-26.96 20.23-20.23 8.268 4.291 18.405.079 21.211-8.786 4.405-13.917 24.205-13.921 28.611 0 2.811 8.88 12.958 13.069 21.211 8.786 12.953-6.727 26.959 7.273 20.23 20.23-4.291 8.266-.08 18.404 8.786 21.211 6.259 1.981 10.464 7.73 10.464 14.306 0 6.575-4.205 12.324-10.464 14.305zm55.464 60.693h-44.999v-1.553c9.731-10.208 13.95-24.006 12.006-37.406 11.134-8.312 17.993-21.502 17.993-36.039s-6.86-27.727-17.993-36.038c4.299-29.621-21.344-55.268-50.965-50.965-17.908-23.988-54.171-23.985-72.077 0-29.635-4.291-55.262 21.347-50.965 50.965-23.988 17.908-23.985 54.171 0 72.077-1.945 13.402 2.275 27.198 12.006 37.406v1.553H45.005c-8.271 0-15-6.729-15-15V44.999c0-8.271 6.729-15 15-15h421.987c8.271 0 15 6.729 15 15v329.99h.001c0 8.27-6.729 14.999-15 14.999z" fill="#FFF"/><path d="M357.606 94.39l-29.999-29.999c-5.857-5.858-15.354-5.858-21.212 0l-19.393 19.392-19.393-19.392c-5.857-5.858-15.355-5.858-21.212 0l-19.393 19.392-19.393-19.392c-5.857-5.858-15.355-5.858-21.212 0L156.397 94.39c-5.858 5.858-5.858 15.354 0 21.212 5.857 5.859 15.354 5.859 21.211 0l19.393-19.392 19.393 19.392c5.857 5.858 15.354 5.858 21.212 0l19.393-19.392 19.393 19.392c5.857 5.858 15.354 5.858 21.212 0L317 96.21l19.393 19.392c5.857 5.858 15.355 5.858 21.212 0 5.859-5.857 5.859-15.354.001-21.212z" fill="#FFF"/></svg>