<svg xmlns="http://www.w3.org/2000/svg" viewBox="0 0 512 512" width="512" height="512"><path d="M459.312 132.688l-128-128A15.93 15.93 0 0 0 320 0h-64v32h48v112c0 8.832 7.152 16 16 16h112v320H80V32h16V0H64c-8.848 0-16 7.168-16 16v480c0 8.832 7.152 16 16 16h384c8.848 0 16-7.168 16-16V144c0-4.24-1.68-8.32-4.688-11.312zM336 128V54.624L409.376 128H336z" fill="#FFF"/><path d="M208 0h-64c-8.848 0-16 7.168-16 16v256c0 2.48.576 4.944 1.68 7.152l32 64C164.4 348.576 169.936 352 176 352s11.6-3.424 14.32-8.848l32-64A16.037 16.037 0 0 0 224 272V16c0-8.832-7.152-16-16-16zm-16 268.224l-16 32-16-32V96h32v172.224zM192 64h-32V32h32v32zm48 256h160v32H240zm32-64h128v32H272zm0-64h128v32H272zm-96 192h224v32H176zm-64 0h32v32h-32z" fill="#FFF"/></svg>