<svg xmlns="http://www.w3.org/2000/svg" viewBox="0 0 30.77 30.77" width="512" height="512"><g fill="#FFF"><path d="M15.385 25.047c-5.747 0-11.05-2.622-14.55-7.192a4.069 4.069 0 0 1 0-4.938c3.5-4.571 8.804-7.193 14.55-7.193 5.747 0 11.051 2.622 14.551 7.193a4.07 4.07 0 0 1 0 4.937c-3.5 4.57-8.804 7.193-14.551 7.193zm0-17.324c-5.118 0-9.843 2.336-12.962 6.41a2.061 2.061 0 0 0 0 2.504c3.118 4.073 7.843 6.409 12.962 6.409 5.12 0 9.845-2.336 12.963-6.409a2.064 2.064 0 0 0 0-2.504c-3.119-4.074-7.844-6.41-12.963-6.41z"/><path d="M15.385 21.99a6.611 6.611 0 0 1-6.604-6.604 6.612 6.612 0 0 1 6.604-6.605 6.612 6.612 0 0 1 6.605 6.605 6.612 6.612 0 0 1-6.605 6.604zm0-11.21c-2.539 0-4.604 2.066-4.604 4.605s2.065 4.604 4.604 4.604 4.605-2.065 4.605-4.604-2.066-4.605-4.605-4.605z"/><path d="M15.385 18.266c-1.589 0-2.881-1.292-2.881-2.881s1.292-2.881 2.881-2.881 2.882 1.292 2.882 2.881-1.293 2.881-2.882 2.881zm0-3.761c-.485 0-.881.396-.881.881s.396.881.881.881c.486 0 .882-.396.882-.881s-.396-.881-.882-.881z"/></g></svg>