<svg xmlns="http://www.w3.org/2000/svg" viewBox="0 0 512 512" width="512" height="512"><path d="M286 121h-90c-8.284 0-15 6.716-15 15s6.716 15 15 15h90c8.284 0 15-6.716 15-15s-6.716-15-15-15zm0 60h-90c-8.284 0-15 6.716-15 15s6.716 15 15 15h90c8.284 0 15-6.716 15-15s-6.716-15-15-15zm60 61H196c-8.284 0-15 6.716-15 15s6.716 15 15 15h150c8.284 0 15-6.716 15-15s-6.716-15-15-15zm-30 120H196c-24.813 0-45 20.187-45 45s20.187 45 45 45h120c24.813 0 45-20.187 45-45s-20.187-45-45-45zm0 60H196c-8.271 0-15-6.729-15-15s6.729-15 15-15h120c8.271 0 15 6.729 15 15s-6.729 15-15 15z" fill="#FFF"/><path d="M497 242h-45v-92.701c.048-11.491-4.91-23.109-13.604-31.875l-42.25-42.602A48.277 48.277 0 0 0 392 71.113V15c0-8.284-6.716-15-15-15H76c-8.284 0-15 6.716-15 15v227H15c-8.284 0-15 6.716-15 15v210c0 24.813 20.187 45 45 45h422c24.813 0 45-20.187 45-45V257c0-8.284-6.716-15-15-15zM374.846 95.947l42.25 42.602c3.086 3.112 4.919 7.083 4.904 10.687V151h-60V91h2.257c3.851.016 7.872 2.208 10.589 4.947zM347 181h75v61h-16a14.998 14.998 0 0 0-13.416 8.292L366.729 302H151V91h181v75c0 8.284 6.716 15 15 15zM91 30h271v31H136c-8.284 0-15 6.716-15 15v177.46c-1.334-2.668-4.68-11.46-15-11.46H91V30zm391 437c0 8.271-6.729 15-15 15H45c-8.271 0-15-6.729-15-15V272h66.729l25.854 51.708C125.056 328.653 130.227 332 136 332h240c5.682 0 10.876-3.21 13.416-8.292L415.271 272H482v195z" fill="#FFF"/></svg>