<svg xmlns="http://www.w3.org/2000/svg" viewBox="0 0 511.999 511.999" width="512" height="512"><path d="M477.897 81.788l-53.426-53.425c-37.817-37.818-99.352-37.818-137.168 0-12.039 12.04-13.042 12.904-16.66 17.195-27.799.139-53.912 11.023-73.584 30.695l-31.766 31.766-10.589-10.589c-17.515-17.515-46.017-17.515-63.531 0l-63.532 63.532c-29.262 29.261-29.265 76.622 0 105.886 29.26 29.261 76.622 29.263 105.885 0l63.532-63.532c8.486-8.484 13.159-19.766 13.159-31.766s-4.673-23.28-13.159-31.766l-10.588-10.589 31.766-31.766c9.674-9.675 21.53-16.37 34.457-19.639-10.278 31.497-4.043 67.232 18.701 93.564L41.486 401.729c-17.515 17.515-17.515 46.016 0 63.532 17.515 17.515 46.016 17.516 63.532 0l10.588-10.588 52.943 52.943c5.844 5.844 15.33 5.847 21.177 0l42.354-42.355c5.848-5.848 5.848-15.329 0-21.177l-10.588-10.588 21.177-21.177 10.589 10.589c5.847 5.848 15.328 5.848 21.177 0l42.354-42.354c5.848-5.848 5.848-15.329 0-21.177l-52.971-52.971 71.128-71.504c18.129 15.642 40.706 23.491 63.296 23.491 24.838 0 49.676-9.454 68.584-28.363l11.071-11.071c18.32-18.32 28.409-42.677 28.409-68.584-.001-25.909-10.09-50.267-28.409-68.587zM112.35 245.671c-17.558 17.556-45.974 17.558-63.532 0-17.557-17.557-17.559-45.974 0-63.532l10.589-10.589 63.532 63.532-10.589 10.589zm63.531-63.532l-31.766 31.766-63.532-63.532 31.766-31.766c5.839-5.839 15.339-5.838 21.177 0l10.589 10.589-10.589 10.589c-5.848 5.848-5.848 15.329 0 21.177 5.847 5.847 15.329 5.848 21.177 0l10.589-10.589 10.589 10.589c5.853 5.853 5.853 15.324 0 21.177zm109.141 187.825l-21.177 21.177-10.589-10.589c-5.847-5.848-15.329-5.848-21.177 0l-42.354 42.354c-5.848 5.848-5.848 15.329 0 21.177l10.588 10.589-21.177 21.177-42.355-42.355 105.886-105.886 42.355 42.356zM83.84 444.084c-5.839 5.839-15.339 5.839-21.177 0s-5.839-15.339.01-21.188c217.815-218.258 229.171-229.635 229.462-229.927l.231-.231 21.195 21.194C204.889 323.179 270.314 257.61 83.84 444.084zm372.88-246.303l-11.071 11.071c-26.141 26.14-68.674 26.14-94.815 0l-53.426-53.425c-21.23-21.231-25.217-53.274-11.963-78.566a74 74 0 0 1 27.856 11.605c-8.875 14.306-7.12 33.381 5.287 45.787l47.886 47.885c13.27 13.271 42.153 21.38 58 5.533l11.064-11.064c14.482-14.481 14.485-37.983 0-52.468L382.119 70.72c-12.981-12.981-33.261-14.304-47.742-3.988a103.805 103.805 0 0 0-27.956-15.135l2.057-2.057c26.141-26.14 68.674-26.14 94.815 0l53.426 53.425c12.663 12.662 19.637 29.499 19.637 47.407 0 17.909-6.974 34.745-19.636 47.409zM350.829 91.897c2.788-2.788 7.326-2.788 10.114 0l53.419 53.419c2.772 2.772 2.778 7.335 0 10.113L403.56 166.23c-2.812 1.042-11.791-1.153-15.908-5.27l-47.887-47.886c-2.788-2.786-2.788-7.324 0-10.112l5.533-5.533c.712-.712-2.296 2.295 5.531-5.532z" fill="#FFF"/></svg>