<svg xmlns="http://www.w3.org/2000/svg" xmlns:xlink="http://www.w3.org/1999/xlink" viewBox="0 0 81 125" width="81" height="125"><defs><path d="M42.61 13.46l-.11.01h-.21l-.3.01-.41.01-.53.01-.65.01-.79.01-.08.01h-.12l-.14.01-.08.01-.02.01h.07l.14.01.24.01h.35l.45.01.58.01h2.53l1.15.01h1.31l1.39.03 1.38.11 1.37.18 1.35.24 1.35.32 1.33.37 1.31.45 1.29.5 1.28.56 1.26.62 1.23.68 1.21.73 1.19.78 1.17.84 1.13.88 1.11.93 1.08.98 1.05 1.02 1.01 1.06.98 1.1.95 1.14.91 1.18.87 1.21.84 1.25.79 1.27.75 1.31.71 1.34.67 1.36.62 1.38.57 1.41.53 1.43.47 1.45.43 1.46.37 1.48.32 1.49.26 1.51.21 1.52.15 1.52.09 1.53.03 1.54v29.49l-.03 1.67-.1 1.65-.17 1.64-.23 1.61-.29 1.6-.36 1.57-.41 1.55-.48 1.52-.53 1.5-.59 1.47-.64 1.44-.7 1.41-.74 1.38-.8 1.34-.85 1.32-.9 1.27-.95 1.24-.99 1.2-1.04 1.16-1.07 1.13L68 113l-1.16 1.04-1.2.99-1.24.95-1.27.9-1.32.85-1.34.8-1.38.74-1.41.7-1.44.64-1.47.59-1.5.53-1.52.48-1.55.41-1.57.36-1.6.29-1.61.23-1.64.17-1.65.1-1.67.03-1.67-.03-1.66-.1-1.63-.17-1.62-.23-1.59-.29-1.58-.36-1.54-.41-1.53-.48-1.49-.53-1.47-.59-1.44-.64-1.41-.7-1.38-.74-1.35-.8-1.31-.85-1.28-.9-1.24-.95-1.2-.99-1.16-1.04-1.12-1.07-1.08-1.13-1.04-1.16-.99-1.2-.94-1.24-.9-1.27-.85-1.32-.8-1.34-.75-1.38-.7-1.41-.64-1.44-.59-1.47-.53-1.5-.47-1.52L1.09 93l-.35-1.57-.29-1.6-.24-1.61-.16-1.64-.1-1.65-.04-1.67V53.77l.03-1.53.09-1.53.13-1.53.19-1.51.25-1.5.29-1.49.35-1.47.39-1.46.45-1.44.49-1.42.54-1.4.58-1.38.63-1.35.67-1.33.72-1.3.76-1.26.8-1.24.84-1.21.88-1.17.92-1.13.95-1.1.99-1.05 1.03-1.02 1.07-.97 1.09-.93 1.13-.88 1.16-.83 1.2-.79 1.22-.73 1.25-.68 1.28-.63 1.31-.57 1.34-.51 1.36-.45 1.38-.39 1.41-.33 1.43-.27 1.45-.19 1.48-.13 1.49-.06 1.41-.03 1.25-.02 1.08-.02.86-.01.07-.01.24-.01h.26l.29-.01.3-.01.31-.01h.31l.29-.01h.28l.25-.01h.51-.03zM31.73 24.95l-.97.32-.96.34-.94.38-.93.41-.91.44-.89.47-.88.5-.86.53-.83.56-.82.58-.79.61-.78.64-.75.66-.73.69-.7.71-.68.73-.66.76-.63.78-.6.8-.58.82-.55.84-.52.86-.49.88-.46.9-.44.91-.4.93-.37.95-.34.96-.3.98-.27.99-.24 1.01-.21 1.02-.16 1.03-.13 1.04-.1 1.05-.06 1.07-.02 1.07v29.49l.03 1.21.07 1.2.12 1.19.17 1.17.21 1.16.26 1.14.3 1.13.35 1.11.39 1.09.42 1.06.47 1.05.51 1.03.55 1 .58.98.62.95.65.93.69.9.72.88.75.84.79.82.82.78.84.76.88.72.9.69.93.65.95.62.98.58 1 .55 1.03.5 1.04.47 1.07.43 1.09.39 1.11.34 1.12.3 1.14.26 1.16.22 1.18.16 1.19.13 1.2.07 1.21.02 1.21-.02 1.2-.07 1.19-.11 1.16-.15 1.16-.2 1.13-.24 1.12-.29 1.1-.32 1.08-.36 1.06-.41 1.03-.44 1.02-.48.99-.52.97-.55.94-.59.92-.63.89-.66.87-.7.83-.73.81-.77.78-.79.75-.83.71-.86.69-.89.65-.92.61-.95.59-.98.54-1.01.51-1.03.48-1.06.43-1.09.4-1.11.35-1.13.32-1.16.27-1.19.24-1.2.19-1.23.14-1.25.1-1.27.06-1.29.03-1.29.02-1.25.03-1.23.02-1.19.02-1.17.01-1.13.02-1.11.01-1.08.01-1.04v-1.02l.01-.99v-4.52l-.01-.83v-.79l-.01-.76-.01-.74v-.72l-.01-.68-.01-.66-.01-.63-.01-.61-.01-.58-.01-.55-.01-.53-.01-.5-.02-.48v-.45l-.01-.42-.01-.41-.01-.37-.01-.36v-.32l-.01-.31v-.77l-.02-1.07-.06-1.07-.1-1.05-.13-1.04-.16-1.03-.21-1.02-.24-1.01-.27-.99-.3-.98-.34-.96-.37-.95-.4-.93-.44-.91-.46-.9-.49-.88-.52-.86-.55-.84-.58-.82-.6-.8-.63-.78-.66-.76-.68-.73-.7-.71-.73-.69-.75-.66-.78-.64-.79-.61-.82-.58-.83-.56-.86-.53-.88-.5-.89-.47-.91-.44-.93-.41-.94-.38-.96-.34-.97-.32-.99-.28-1.01-.24-1.01-.22v16.86l-.01.23-.01.22-.02.23-.03.22-.04.22-.05.21-.06.21-.06.21-.08.2-.08.2-.08.2-.1.19-.1.19-.11.18-.12.18-.12.18-.13.17-.13.16-.14.16-.15.15-.15.15-.16.14-.17.13-.17.13-.17.13-.18.11-.18.11-.19.1-.19.1-.2.09-.2.08-.2.07-.21.06-.21.06-.22.05-.21.04-.22.03-.23.02-.22.02h-.46l-.22-.02-.23-.02-.22-.03-.21-.04-.22-.05-.21-.06-.21-.06-.2-.07-.2-.08-.2-.09-.19-.1-.19-.1-.18-.11-.18-.11-.18-.13-.16-.13-.17-.13-.16-.14-.15-.15-.15-.15-.14-.16-.13-.16-.13-.17-.12-.18-.12-.18-.11-.18-.1-.19-.1-.19-.08-.2-.08-.2-.08-.2-.06-.21-.06-.21-.05-.21-.04-.22-.03-.22-.02-.23-.01-.22-.01-.23V24.21l-1.01.22-1.01.24-.99.28z" id="a"/></defs><use xlink:href="#a"/><use xlink:href="#a" fill-opacity="0" stroke="#000" stroke-opacity="0"/></svg>