<svg xmlns="http://www.w3.org/2000/svg" viewBox="0 0 512 512"><path d="M365.157 0H146.843c-24.362 0-44.11 19.748-44.11 44.11v423.78c0 24.361 19.748 44.11 44.11 44.11h218.314c24.361 0 44.11-19.748 44.11-44.11V44.11c0-24.362-19.748-44.11-44.11-44.11zM136.051 44.627c.001-5.951 4.612-11.308 10.562-11.308h218.773c5.95 0 10.561 5.358 10.561 11.308v34.227H136.051V44.627zm239.897 423.856c0 5.951-4.611 11.308-10.561 11.308H146.613c-5.95 0-10.561-5.358-10.561-11.308v-54.219h239.896v54.219zm0-87.537H136.052V112.174h239.896v268.772z"/><circle cx="256" cy="445.373" r="17.512"/></svg>