<svg xmlns="http://www.w3.org/2000/svg" viewBox="0 0 297 297" width="512" height="512"><g fill="#FFF"><path d="M139.858 141.888V17.554a8.996 8.996 0 0 0-8.994-8.995h-.026C58.694 8.764 0 67.626 0 139.771c0 35.545 13.989 68.828 39.391 93.718a8.97 8.97 0 0 0 6.295 2.57 8.973 8.973 0 0 0 6.361-2.634l85.177-85.177a8.994 8.994 0 0 0 2.634-6.36zM86.474 35.786l35.395 35.373v33.393L64.954 48.047a113.316 113.316 0 0 1 21.52-12.261zm35.395 9.953l-16.262-16.261c5.29-1.23 10.72-2.091 16.262-2.546v18.807zM71.255 188.777l-53.199-52.696a112.39 112.39 0 0 1 7.488-36.927l67.911 67.423-22.2 22.2zm-25.392 25.391c-12.685-14.498-21.294-31.715-25.298-50.282l37.969 37.61-12.671 12.672zm60.294-60.294L33.861 82.062A114.117 114.117 0 0 1 51.22 59.764l70.649 70.206v8.192l-15.712 15.712z"/><path d="M259.503 65.398c-24.89-25.401-58.174-39.39-93.719-39.39l-.352.004a8.995 8.995 0 0 0-8.995 8.995v120.607l-82.543 82.543a8.994 8.994 0 0 0 .065 12.785c24.577 24.08 57.054 37.396 91.49 37.495l.335.003C238.137 288.44 297 229.577 297 157.224c0-34.541-13.316-67.151-37.497-91.826zm-85.077-21.079c24.45 1.829 47.299 11.404 65.755 27.551l-65.755 65.755V44.319zm78.335 40.413c16.989 20.323 26.25 45.737 26.25 72.492 0 62.433-50.793 113.227-113.244 113.226l-.309-.003c-26.628-.075-51.928-9.336-72.164-26.247L252.761 84.732z"/></g></svg>