<svg xmlns="http://www.w3.org/2000/svg" xmlns:xlink="http://www.w3.org/1999/xlink" viewBox="0 0 230 129" width="230" height="129"><defs><path d="M225.9 66.73a3.591 3.591 0 0 0 0-5.06L165.28 1.05c-1.4-1.4-3.66-1.4-5.06 0-1.62 1.61-14.54 14.53-16.15 16.15a3.58 3.58 0 0 0-1.05 2.53c0 .95.38 1.86 1.05 2.53l25.99 25.99H3.58C1.6 48.25 0 49.85 0 51.83v24.74c0 1.98 1.6 3.58 3.58 3.58h166.48c-15.6 15.6-24.26 24.26-26 25.99-1.34 1.34-1.34 3.72 0 5.06 1.62 1.62 14.54 14.54 16.16 16.15a3.58 3.58 0 0 0 2.53 1.05 229627120170078980 229627120170078980 0 0 0 63.15-61.67z" id="a"/></defs><use xlink:href="#a"/><use xlink:href="#a" fill-opacity="0" stroke="#000" stroke-opacity="0"/></svg>