<svg xmlns="http://www.w3.org/2000/svg" viewBox="0 0 512 512" width="512" height="512"><path d="M397.19 0c-50.33 0-91.278 40.947-91.278 91.278 0 50.33 40.947 91.278 91.278 91.278s91.279-40.947 91.279-91.278C488.468 40.947 447.521 0 397.19 0zm0 141.191c-27.523 0-49.913-22.391-49.913-49.913s22.391-49.913 49.913-49.913c27.523 0 49.914 22.391 49.914 49.913s-22.391 49.913-49.914 49.913zm-282.381 23.531c-50.33 0-91.278 40.947-91.278 91.278s40.947 91.278 91.278 91.278S206.087 306.33 206.087 256s-40.947-91.278-91.278-91.278zm0 141.191c-27.522 0-49.913-22.391-49.913-49.913s22.391-49.913 49.913-49.913 49.913 22.391 49.913 49.913c0 27.523-22.391 49.913-49.913 49.913zm282.381 23.532c-50.33 0-91.278 40.947-91.278 91.278S346.859 512 397.19 512s91.279-40.947 91.279-91.278c-.001-50.33-40.948-91.277-91.279-91.277zm0 141.191c-27.523 0-49.913-22.39-49.913-49.913 0-27.523 22.391-49.913 49.913-49.913 27.523 0 49.914 22.39 49.914 49.913 0 27.522-22.391 49.913-49.914 49.913z" fill="#FFF"/><path d="M346.891 367.32l-160.722-93.656c-9.869-5.751-22.532-2.412-28.282 7.457-5.752 9.87-2.413 22.532 7.457 28.283l160.721 93.656a20.591 20.591 0 0 0 10.393 2.816c7.118 0 14.047-3.68 17.89-10.272 5.751-9.87 2.412-22.532-7.457-28.284zm7.214-250.934c-5.757-9.865-18.422-13.194-28.287-7.438l-160.487 93.656c-9.865 5.758-13.195 18.422-7.438 28.288 3.845 6.588 10.768 10.261 17.882 10.261 3.539 0 7.128-.91 10.405-2.823l160.486-93.656c9.867-5.758 13.197-18.423 7.439-28.288z" fill="#FFF"/></svg>