<svg xmlns="http://www.w3.org/2000/svg" viewBox="0 0 512 512" width="512" height="512"><path d="M443.699 188.479c-.961 0-1.904.081-2.822.239v-4.438C440.877 82.668 358.209 0 256.596 0S72.317 82.668 72.317 184.28v4.438a16.608 16.608 0 0 0-2.821-.239c-27.752 0-50.331 22.578-50.331 50.331v82.371c0 23.711 16.488 43.632 38.596 48.934l-.572 24.997a16.656 16.656 0 0 0 13.376 16.71l63.599 12.753C151.939 475.423 200.386 512 257.222 512c49.944 0 93.409-28.246 115.279-69.599h2.037c39.403 0 71.514-31.739 72.158-70.991 25.702-1.557 46.138-22.951 46.138-49.037v-84.757c.002-27.094-22.042-49.137-49.135-49.137zM72.317 338.202h-2.821c-9.386 0-17.022-7.635-17.022-17.021V238.81c0-9.385 7.635-17.022 17.022-17.022.962 0 1.905-.081 2.821-.239v116.653zM256.596 33.309c65.425 0 121.254 41.836 142.163 100.157-8.124-8.865-17.212-16.917-27.211-24.067-32.076-22.936-72.654-35.568-114.255-35.567-41.603.001-82.179 12.635-114.253 35.574-10.956 7.835-20.815 16.758-29.514 26.643 20.169-59.668 76.684-102.74 143.07-102.74zm97.639 348.37a96.763 96.763 0 0 1-3.95 27.413H275.56c-9.198 0-16.654 7.457-16.654 16.654s7.457 16.654 16.654 16.654h57.261c-17.797 22.113-45.071 36.291-75.599 36.291-53.493 0-97.012-43.519-97.012-97.012V275.678c12.389-7.8 34.789-23.514 50.133-43.591 22.742 18.369 69.532 46.886 143.891 50.599v98.993zm59.183-11.465c.001 17.836-12.077 32.896-28.481 37.456a130.36 130.36 0 0 0 2.606-25.991V266.791c0-4.467-1.759-8.525-4.623-11.515a16.614 16.614 0 0 0-12.362-5.495c-54.033 0-92.224-14.831-114.748-27.274-24.431-13.496-36.302-27.205-36.36-27.272a16.667 16.667 0 0 0-15.279-5.785 16.66 16.66 0 0 0-12.873 10.06c-9.365 22.477-43.483 45.278-55.824 52.16a16.654 16.654 0 0 0-8.573 14.561V381.68c0 2.521.08 5.025.222 7.512l-36.315-7.282.241-10.541c8.215-1.025 14.576-8.018 14.576-16.511V224.434c.041-.162.093-.319.13-.484 19.114-86.214 93.58-116.807 151.539-116.809 56.755-.001 129.328 29.336 150.273 111.5v136.217c0 5.173 2.359 9.796 6.06 12.85a16.559 16.559 0 0 0-.209 2.506zm30.281-32.011h-2.822V225.615c.427-1.272.718-2.596.826-3.96a16.64 16.64 0 0 0 1.995.133c8.728 0 15.828 7.101 15.828 15.829v84.757h.001c0 8.728-7.101 15.829-15.828 15.829z" fill="#FFF"/><path d="M225.469 307.066h-26.646c-9.198 0-16.654 7.457-16.654 16.654s7.457 16.654 16.654 16.654h26.646c9.198 0 16.654-7.457 16.654-16.654s-7.456-16.654-16.654-16.654zm87.709 0h-26.646c-9.198 0-16.654 7.457-16.654 16.654s7.457 16.654 16.654 16.654h26.646c9.198 0 16.654-7.457 16.654-16.654s-7.457-16.654-16.654-16.654z" fill="#FFF"/></svg>